<svg id="Calque_1" data-name="Calque 1" xmlns="http://www.w3.org/2000/svg" viewBox="0 0 496 496"><defs><style>.cls-1{fill:#3a627d;}</style></defs><path class="cls-1" d="M504,255.53C504.25,392.17,392.82,503.9,256.18,504a247,247,0,0,1-155.82-54.91,24,24,0,0,1-1.84-35.61l11.27-11.27a24,24,0,0,1,31.89-2,184,184,0,1,0-11.75-278.3l50.76,50.76c10.08,10.08,2.94,27.31-11.32,27.31H24A16,16,0,0,1,8,184V38.63c0-14.26,17.23-21.4,27.31-11.32L84.69,76.68A247.17,247.17,0,0,1,256,8C392.81,8,503.75,118.78,504,255.53ZM323.09,334.32l9.82-12.64A24,24,0,0,0,328.7,288L288,256.35V152a24,24,0,0,0-24-24H248a24,24,0,0,0-24,24V287.65l65.41,50.87A24,24,0,0,0,323.09,334.32Z" transform="translate(-8 -8)"/></svg>